<svg width="1200" height="1200" viewBox="0 0 1200 1200" fill="none" xmlns="http://www.w3.org/2000/svg">
  <rect width="1200" height="1200" rx="72" fill="#FAF7F2"/>
  <rect x="120" y="120" width="960" height="960" rx="48" fill="#FFF3E4"/>
  <rect x="228" y="564" width="430" height="84" rx="42" fill="#0A1D37"/>
  <rect x="270" y="589" width="344" height="34" rx="17" fill="#102A4C"/>
  <rect x="658" y="522" width="230" height="168" rx="34" fill="#F78801"/>
  <rect x="694" y="556" width="160" height="30" rx="15" fill="#FAF7F2"/>
  <rect x="694" y="606" width="118" height="30" rx="15" fill="#FAF7F2"/>
  <circle cx="932" cy="606" r="72" fill="#D0D5DD"/>
  <circle cx="932" cy="606" r="38" fill="#FAF7F2"/>
  <rect x="250" y="456" width="112" height="26" rx="13" fill="#F78801"/>
  <rect x="380" y="456" width="94" height="26" rx="13" fill="#F78801" fill-opacity="0.85"/>
  <rect x="492" y="456" width="76" height="26" rx="13" fill="#F78801" fill-opacity="0.7"/>
  <circle cx="870" cy="344" r="96" fill="#102A4C"/>
  <path d="M838 344h64" stroke="#FAF7F2" stroke-width="18" stroke-linecap="round"/>
  <path d="M870 312v64" stroke="#FAF7F2" stroke-width="18" stroke-linecap="round"/>
  <rect x="186" y="776" width="272" height="16" rx="8" fill="#D0D5DD"/>
  <rect x="186" y="812" width="368" height="16" rx="8" fill="#D0D5DD"/>
</svg>
