<svg xmlns="http://www.w3.org/2000/svg" xmlns:xlink="http://www.w3.org/1999/xlink" width="1600" zoomAndPan="magnify" viewBox="0 0 1200 262.499992" height="350" preserveAspectRatio="xMidYMid meet" version="1.0"><defs><g/><clipPath id="e4665510ca"><rect x="0" width="1166" y="0" height="262"/></clipPath></defs><g transform="matrix(1, 0, 0, 1, 16, 0)"><g clip-path="url(#e4665510ca)"><g fill="#0c2d48" fill-opacity="1"><g transform="translate(1.881846, 222.217077)"><g><path d="M 39.203125 2.21875 C 33.453125 2.21875 29.046875 0.597656 25.984375 -2.640625 C 22.929688 -5.878906 21.40625 -10.375 21.40625 -16.125 L 21.40625 -180.140625 C 21.40625 -186.078125 22.929688 -190.570312 25.984375 -193.625 C 29.046875 -196.6875 33.453125 -198.21875 39.203125 -198.21875 C 44.941406 -198.21875 49.335938 -196.6875 52.390625 -193.625 C 55.453125 -190.570312 56.984375 -186.078125 56.984375 -180.140625 L 56.984375 -109.25 L 57.546875 -109.25 L 137.328125 -189.3125 C 140.296875 -192.28125 143.257812 -194.503906 146.21875 -195.984375 C 149.1875 -197.472656 152.523438 -198.21875 156.234375 -198.21875 C 161.609375 -198.21875 165.453125 -196.828125 167.765625 -194.046875 C 170.085938 -191.265625 171.015625 -188.019531 170.546875 -184.3125 C 170.085938 -180.601562 168.28125 -177.175781 165.125 -174.03125 L 83.953125 -93.6875 L 84.234375 -109.8125 L 169.03125 -23.625 C 172.914062 -19.914062 174.953125 -16.023438 175.140625 -11.953125 C 175.328125 -7.878906 174.078125 -4.5 171.390625 -1.8125 C 168.703125 0.875 164.765625 2.21875 159.578125 2.21875 C 155.128906 2.21875 151.5625 1.289062 148.875 -0.5625 C 146.1875 -2.414062 143.082031 -5.101562 139.5625 -8.625 L 57.546875 -90.625 L 56.984375 -90.625 L 56.984375 -16.125 C 56.984375 -10.375 55.5 -5.878906 52.53125 -2.640625 C 49.570312 0.597656 45.128906 2.21875 39.203125 2.21875 Z M 39.203125 2.21875 "/></g></g></g><g fill="#0c2d48" fill-opacity="1"><g transform="translate(183.967505, 222.217077)"><g><path d="M 67.28125 2.78125 C 55.96875 2.78125 46.601562 0.695312 39.1875 -3.46875 C 31.78125 -7.644531 26.269531 -13.898438 22.65625 -22.234375 C 19.039062 -30.578125 17.234375 -40.957031 17.234375 -53.375 L 17.234375 -120.65625 C 17.234375 -126.582031 18.710938 -130.984375 21.671875 -133.859375 C 24.640625 -136.734375 28.90625 -138.171875 34.46875 -138.171875 C 40.03125 -138.171875 44.335938 -136.734375 47.390625 -133.859375 C 50.453125 -130.984375 51.984375 -126.582031 51.984375 -120.65625 L 51.984375 -52.8125 C 51.984375 -43.175781 53.925781 -36.039062 57.8125 -31.40625 C 61.707031 -26.78125 67.921875 -24.46875 76.453125 -24.46875 C 85.710938 -24.46875 93.304688 -27.660156 99.234375 -34.046875 C 105.171875 -40.441406 108.140625 -48.921875 108.140625 -59.484375 L 108.140625 -120.65625 C 108.140625 -126.582031 109.617188 -130.984375 112.578125 -133.859375 C 115.546875 -136.734375 119.8125 -138.171875 125.375 -138.171875 C 130.9375 -138.171875 135.242188 -136.734375 138.296875 -133.859375 C 141.359375 -130.984375 142.890625 -126.582031 142.890625 -120.65625 L 142.890625 -15.5625 C 142.890625 -3.707031 137.238281 2.21875 125.9375 2.21875 C 120.5625 2.21875 116.390625 0.691406 113.421875 -2.359375 C 110.453125 -5.421875 108.96875 -9.820312 108.96875 -15.5625 L 108.96875 -36.703125 L 112.875 -28.359375 C 108.976562 -18.347656 103.09375 -10.65625 95.21875 -5.28125 C 87.34375 0.09375 78.03125 2.78125 67.28125 2.78125 Z M 67.28125 2.78125 "/></g></g></g><g fill="#0c2d48" fill-opacity="1"><g transform="translate(344.925665, 222.217077)"><g><path d="M 96.46875 2.78125 C 84.976562 2.78125 74.921875 -0.0859375 66.296875 -5.828125 C 57.679688 -11.578125 51.984375 -19.269531 49.203125 -28.90625 L 52.265625 -35.859375 L 52.265625 -15.5625 C 52.265625 -9.820312 50.78125 -5.421875 47.8125 -2.359375 C 44.851562 0.691406 40.6875 2.21875 35.3125 2.21875 C 29.75 2.21875 25.484375 0.691406 22.515625 -2.359375 C 19.546875 -5.421875 18.0625 -9.820312 18.0625 -15.5625 L 18.0625 -180.703125 C 18.0625 -186.441406 19.546875 -190.796875 22.515625 -193.765625 C 25.484375 -196.734375 29.75 -198.21875 35.3125 -198.21875 C 40.863281 -198.21875 45.164062 -196.734375 48.21875 -193.765625 C 51.28125 -190.796875 52.8125 -186.441406 52.8125 -180.703125 L 52.8125 -108.421875 L 49.484375 -108.421875 C 52.453125 -117.503906 58.195312 -124.820312 66.71875 -130.375 C 75.25 -135.9375 85.164062 -138.71875 96.46875 -138.71875 C 108.507812 -138.71875 118.976562 -135.84375 127.875 -130.09375 C 136.769531 -124.351562 143.71875 -116.25 148.71875 -105.78125 C 153.726562 -95.3125 156.234375 -82.753906 156.234375 -68.109375 C 156.234375 -53.648438 153.726562 -41.09375 148.71875 -30.4375 C 143.71875 -19.78125 136.722656 -11.578125 127.734375 -5.828125 C 118.753906 -0.0859375 108.332031 2.78125 96.46875 2.78125 Z M 86.734375 -23.625 C 93.585938 -23.625 99.609375 -25.289062 104.796875 -28.625 C 109.992188 -31.96875 114.023438 -36.925781 116.890625 -43.5 C 119.765625 -50.082031 121.203125 -58.285156 121.203125 -68.109375 C 121.203125 -82.929688 118.050781 -94.003906 111.75 -101.328125 C 105.445312 -108.648438 97.109375 -112.3125 86.734375 -112.3125 C 79.878906 -112.3125 73.851562 -110.6875 68.65625 -107.4375 C 63.46875 -104.195312 59.4375 -99.285156 56.5625 -92.703125 C 53.695312 -86.128906 52.265625 -77.929688 52.265625 -68.109375 C 52.265625 -53.460938 55.414062 -42.382812 61.71875 -34.875 C 68.019531 -27.375 76.359375 -23.625 86.734375 -23.625 Z M 86.734375 -23.625 "/></g></g></g><g fill="#0c2d48" fill-opacity="1"><g transform="translate(511.721707, 222.217077)"><g><path d="M 35.3125 1.953125 C 29.75 1.953125 25.484375 0.285156 22.515625 -3.046875 C 19.546875 -6.390625 18.0625 -11.023438 18.0625 -16.953125 L 18.0625 -118.984375 C 18.0625 -125.097656 19.546875 -129.773438 22.515625 -133.015625 C 25.484375 -136.265625 29.75 -137.890625 35.3125 -137.890625 C 40.863281 -137.890625 45.164062 -136.265625 48.21875 -133.015625 C 51.28125 -129.773438 52.8125 -125.097656 52.8125 -118.984375 L 52.8125 -16.953125 C 52.8125 -11.023438 51.328125 -6.390625 48.359375 -3.046875 C 45.398438 0.285156 41.050781 1.953125 35.3125 1.953125 Z M 35.3125 -163.734375 C 28.820312 -163.734375 23.769531 -165.351562 20.15625 -168.59375 C 16.539062 -171.84375 14.734375 -176.34375 14.734375 -182.09375 C 14.734375 -188.019531 16.539062 -192.554688 20.15625 -195.703125 C 23.769531 -198.859375 28.820312 -200.4375 35.3125 -200.4375 C 41.976562 -200.4375 47.070312 -198.859375 50.59375 -195.703125 C 54.113281 -192.554688 55.875 -188.019531 55.875 -182.09375 C 55.875 -176.34375 54.113281 -171.84375 50.59375 -168.59375 C 47.070312 -165.351562 41.976562 -163.734375 35.3125 -163.734375 Z M 35.3125 -163.734375 "/></g></g></g><g fill="#0c2d48" fill-opacity="1"><g transform="translate(582.60999, 222.217077)"><g><path d="M 35.3125 2.21875 C 29.75 2.21875 25.484375 0.691406 22.515625 -2.359375 C 19.546875 -5.421875 18.0625 -9.820312 18.0625 -15.5625 L 18.0625 -180.703125 C 18.0625 -186.441406 19.546875 -190.796875 22.515625 -193.765625 C 25.484375 -196.734375 29.75 -198.21875 35.3125 -198.21875 C 40.863281 -198.21875 45.164062 -196.734375 48.21875 -193.765625 C 51.28125 -190.796875 52.8125 -186.441406 52.8125 -180.703125 L 52.8125 -78.125 L 53.375 -78.125 L 99.25 -126.484375 C 102.957031 -130.191406 106.195312 -133.066406 108.96875 -135.109375 C 111.75 -137.148438 115.550781 -138.171875 120.375 -138.171875 C 125.195312 -138.171875 128.859375 -136.914062 131.359375 -134.40625 C 133.859375 -131.90625 135.109375 -128.894531 135.109375 -125.375 C 135.109375 -121.851562 133.441406 -118.332031 130.109375 -114.8125 L 81.734375 -63.65625 L 81.734375 -78.125 L 134.828125 -20.84375 C 138.160156 -17.320312 139.6875 -13.753906 139.40625 -10.140625 C 139.132812 -6.523438 137.609375 -3.5625 134.828125 -1.25 C 132.046875 1.0625 128.523438 2.21875 124.265625 2.21875 C 119.078125 2.21875 114.953125 1.203125 111.890625 -0.828125 C 108.835938 -2.867188 105.457031 -5.929688 101.75 -10.015625 L 53.375 -60.609375 L 52.8125 -60.609375 L 52.8125 -15.5625 C 52.8125 -3.707031 46.976562 2.21875 35.3125 2.21875 Z M 35.3125 2.21875 "/></g></g></g><g fill="#0c2d48" fill-opacity="1"><g transform="translate(731.614436, 222.217077)"><g><path d="M 23.359375 2.21875 C 18.910156 2.21875 15.34375 1.203125 12.65625 -0.828125 C 9.96875 -2.867188 8.34375 -5.601562 7.78125 -9.03125 C 7.226562 -12.457031 7.878906 -16.304688 9.734375 -20.578125 L 83.125 -183.203125 C 85.53125 -188.578125 88.445312 -192.421875 91.875 -194.734375 C 95.300781 -197.054688 99.238281 -198.21875 103.6875 -198.21875 C 107.957031 -198.21875 111.804688 -197.054688 115.234375 -194.734375 C 118.660156 -192.421875 121.578125 -188.578125 123.984375 -183.203125 L 197.65625 -20.578125 C 199.695312 -16.304688 200.4375 -12.410156 199.875 -8.890625 C 199.320312 -5.367188 197.75 -2.632812 195.15625 -0.6875 C 192.5625 1.25 189.132812 2.21875 184.875 2.21875 C 179.6875 2.21875 175.65625 0.96875 172.78125 -1.53125 C 169.90625 -4.03125 167.351562 -7.875 165.125 -13.0625 L 147.0625 -55.046875 L 162.078125 -45.3125 L 44.765625 -45.3125 L 59.765625 -55.046875 L 41.984375 -13.0625 C 39.566406 -7.6875 37.0625 -3.796875 34.46875 -1.390625 C 31.875 1.015625 28.171875 2.21875 23.359375 2.21875 Z M 103.140625 -157.34375 L 64.21875 -64.78125 L 56.984375 -73.671875 L 149.84375 -73.671875 L 142.890625 -64.78125 L 103.6875 -157.34375 Z M 103.140625 -157.34375 "/></g></g></g><g fill="#0c2d48" fill-opacity="1"><g transform="translate(938.441489, 222.217077)"><g><path d="M 35.859375 2.21875 C 30.117188 2.21875 25.71875 0.691406 22.65625 -2.359375 C 19.59375 -5.421875 18.0625 -9.820312 18.0625 -15.5625 L 18.0625 -120.65625 C 18.0625 -126.394531 19.546875 -130.75 22.515625 -133.71875 C 25.484375 -136.6875 29.65625 -138.171875 35.03125 -138.171875 C 40.40625 -138.171875 44.570312 -136.6875 47.53125 -133.71875 C 50.5 -130.75 51.984375 -126.394531 51.984375 -120.65625 L 51.984375 -103.140625 L 49.203125 -103.140625 C 51.796875 -114.253906 56.890625 -122.679688 64.484375 -128.421875 C 72.085938 -134.171875 82.191406 -137.601562 94.796875 -138.71875 C 98.691406 -139.09375 101.796875 -138.117188 104.109375 -135.796875 C 106.429688 -133.484375 107.773438 -129.914062 108.140625 -125.09375 C 108.515625 -120.46875 107.445312 -116.71875 104.9375 -113.84375 C 102.4375 -110.96875 98.6875 -109.253906 93.6875 -108.703125 L 87.5625 -108.140625 C 76.257812 -107.023438 67.734375 -103.546875 61.984375 -97.703125 C 56.242188 -91.867188 53.375 -83.671875 53.375 -73.109375 L 53.375 -15.5625 C 53.375 -9.820312 51.890625 -5.421875 48.921875 -2.359375 C 45.960938 0.691406 41.609375 2.21875 35.859375 2.21875 Z M 35.859375 2.21875 "/></g></g></g><g fill="#0c2d48" fill-opacity="1"><g transform="translate(1055.198687, 222.217077)"><g><path d="M 80.34375 2.78125 C 68.289062 2.78125 58.234375 0.742188 50.171875 -3.328125 C 42.117188 -7.410156 36.144531 -13.390625 32.25 -21.265625 C 28.351562 -29.140625 26.40625 -38.914062 26.40625 -50.59375 L 26.40625 -109.8125 L 11.953125 -109.8125 C 7.503906 -109.8125 4.070312 -110.96875 1.65625 -113.28125 C -0.75 -115.601562 -1.953125 -118.800781 -1.953125 -122.875 C -1.953125 -127.132812 -0.75 -130.375 1.65625 -132.59375 C 4.070312 -134.820312 7.503906 -135.9375 11.953125 -135.9375 L 26.40625 -135.9375 L 26.40625 -161.234375 C 26.40625 -166.984375 27.929688 -171.335938 30.984375 -174.296875 C 34.046875 -177.265625 38.359375 -178.75 43.921875 -178.75 C 49.484375 -178.75 53.742188 -177.265625 56.703125 -174.296875 C 59.671875 -171.335938 61.15625 -166.984375 61.15625 -161.234375 L 61.15625 -135.9375 L 90.625 -135.9375 C 95.070312 -135.9375 98.5 -134.820312 100.90625 -132.59375 C 103.320312 -130.375 104.53125 -127.132812 104.53125 -122.875 C 104.53125 -118.800781 103.320312 -115.601562 100.90625 -113.28125 C 98.5 -110.96875 95.070312 -109.8125 90.625 -109.8125 L 61.15625 -109.8125 L 61.15625 -52.546875 C 61.15625 -43.648438 63.101562 -36.976562 67 -32.53125 C 70.894531 -28.082031 77.195312 -25.859375 85.90625 -25.859375 C 89.050781 -25.859375 91.828125 -26.132812 94.234375 -26.6875 C 96.648438 -27.238281 98.785156 -27.609375 100.640625 -27.796875 C 102.859375 -27.984375 104.707031 -27.289062 106.1875 -25.71875 C 107.675781 -24.144531 108.421875 -20.945312 108.421875 -16.125 C 108.421875 -12.414062 107.816406 -9.125 106.609375 -6.25 C 105.410156 -3.382812 103.234375 -1.394531 100.078125 -0.28125 C 97.671875 0.457031 94.519531 1.148438 90.625 1.796875 C 86.738281 2.453125 83.3125 2.78125 80.34375 2.78125 Z M 80.34375 2.78125 "/></g></g></g></g></g></svg>