<svg xmlns="http://www.w3.org/2000/svg" xmlns:xlink="http://www.w3.org/1999/xlink" width="1600" zoomAndPan="magnify" viewBox="0 0 1200 262.499992" height="350" preserveAspectRatio="xMidYMid meet" version="1.0"><defs><g/><clipPath id="c83b71fb84"><path d="M 1.140625 0 L 1184 0 L 1184 262 L 1.140625 262 Z M 1.140625 0 " clip-rule="nonzero"/></clipPath><clipPath id="be169cd026"><rect x="0" width="1183" y="0" height="262"/></clipPath></defs><g clip-path="url(#c83b71fb84)"><g transform="matrix(1, 0, 0, 1, 1, 0)"><g clip-path="url(#be169cd026)"><g fill="#ffffff" fill-opacity="1"><g transform="translate(0.140702, 221.088486)"><g><path d="M 39.84375 2.265625 C 34 2.265625 29.523438 0.617188 26.421875 -2.671875 C 23.316406 -5.972656 21.765625 -10.546875 21.765625 -16.390625 L 21.765625 -183.125 C 21.765625 -189.144531 23.316406 -193.707031 26.421875 -196.8125 C 29.523438 -199.925781 34 -201.484375 39.84375 -201.484375 C 45.6875 -201.484375 50.160156 -199.925781 53.265625 -196.8125 C 56.378906 -193.707031 57.9375 -189.144531 57.9375 -183.125 L 57.9375 -111.0625 L 58.5 -111.0625 L 139.59375 -192.453125 C 142.613281 -195.460938 145.628906 -197.71875 148.640625 -199.21875 C 151.660156 -200.726562 155.050781 -201.484375 158.8125 -201.484375 C 164.28125 -201.484375 168.191406 -200.070312 170.546875 -197.25 C 172.898438 -194.425781 173.84375 -191.128906 173.375 -187.359375 C 172.90625 -183.585938 171.066406 -180.101562 167.859375 -176.90625 L 85.34375 -95.234375 L 85.625 -111.625 L 171.8125 -24.015625 C 175.769531 -20.253906 177.84375 -16.300781 178.03125 -12.15625 C 178.21875 -8.007812 176.945312 -4.566406 174.21875 -1.828125 C 171.488281 0.898438 167.484375 2.265625 162.203125 2.265625 C 157.679688 2.265625 154.054688 1.320312 151.328125 -0.5625 C 148.597656 -2.445312 145.441406 -5.179688 141.859375 -8.765625 L 58.5 -92.125 L 57.9375 -92.125 L 57.9375 -16.390625 C 57.9375 -10.546875 56.425781 -5.972656 53.40625 -2.671875 C 50.394531 0.617188 45.875 2.265625 39.84375 2.265625 Z M 39.84375 2.265625 "/></g></g></g><g fill="#ffffff" fill-opacity="1"><g transform="translate(185.243498, 221.088486)"><g><path d="M 68.390625 2.828125 C 56.898438 2.828125 47.382812 0.707031 39.84375 -3.53125 C 32.3125 -7.769531 26.707031 -14.128906 23.03125 -22.609375 C 19.351562 -31.085938 17.515625 -41.640625 17.515625 -54.265625 L 17.515625 -122.640625 C 17.515625 -128.671875 19.019531 -133.144531 22.03125 -136.0625 C 25.050781 -138.988281 29.390625 -140.453125 35.046875 -140.453125 C 40.691406 -140.453125 45.066406 -138.988281 48.171875 -136.0625 C 51.285156 -133.144531 52.84375 -128.671875 52.84375 -122.640625 L 52.84375 -53.6875 C 52.84375 -43.894531 54.820312 -36.644531 58.78125 -31.9375 C 62.738281 -27.226562 69.050781 -24.875 77.71875 -24.875 C 87.132812 -24.875 94.851562 -28.125 100.875 -34.625 C 106.90625 -41.125 109.921875 -49.738281 109.921875 -60.46875 L 109.921875 -122.640625 C 109.921875 -128.671875 111.425781 -133.144531 114.4375 -136.0625 C 117.457031 -138.988281 121.796875 -140.453125 127.453125 -140.453125 C 133.097656 -140.453125 137.472656 -138.988281 140.578125 -136.0625 C 143.691406 -133.144531 145.25 -128.671875 145.25 -122.640625 L 145.25 -15.828125 C 145.25 -3.765625 139.503906 2.265625 128.015625 2.265625 C 122.546875 2.265625 118.304688 0.710938 115.296875 -2.390625 C 112.285156 -5.503906 110.78125 -9.984375 110.78125 -15.828125 L 110.78125 -37.296875 L 114.734375 -28.828125 C 110.773438 -18.648438 104.789062 -10.828125 96.78125 -5.359375 C 88.78125 0.0976562 79.316406 2.828125 68.390625 2.828125 Z M 68.390625 2.828125 "/></g></g></g><g fill="#ffffff" fill-opacity="1"><g transform="translate(348.868715, 221.088486)"><g><path d="M 98.0625 2.828125 C 86.382812 2.828125 76.164062 -0.0859375 67.40625 -5.921875 C 58.644531 -11.765625 52.847656 -19.585938 50.015625 -29.390625 L 53.125 -36.453125 L 53.125 -15.828125 C 53.125 -9.984375 51.613281 -5.503906 48.59375 -2.390625 C 45.582031 0.710938 41.347656 2.265625 35.890625 2.265625 C 30.234375 2.265625 25.898438 0.710938 22.890625 -2.390625 C 19.878906 -5.503906 18.375 -9.984375 18.375 -15.828125 L 18.375 -183.6875 C 18.375 -189.53125 19.878906 -193.957031 22.890625 -196.96875 C 25.898438 -199.976562 30.234375 -201.484375 35.890625 -201.484375 C 41.546875 -201.484375 45.925781 -199.976562 49.03125 -196.96875 C 52.132812 -193.957031 53.6875 -189.53125 53.6875 -183.6875 L 53.6875 -110.21875 L 50.296875 -110.21875 C 53.316406 -119.445312 59.160156 -126.882812 67.828125 -132.53125 C 76.492188 -138.1875 86.570312 -141.015625 98.0625 -141.015625 C 110.300781 -141.015625 120.941406 -138.09375 129.984375 -132.25 C 139.035156 -126.414062 146.101562 -118.175781 151.1875 -107.53125 C 156.269531 -96.882812 158.8125 -84.117188 158.8125 -69.234375 C 158.8125 -54.535156 156.269531 -41.769531 151.1875 -30.9375 C 146.101562 -20.101562 138.988281 -11.765625 129.84375 -5.921875 C 120.707031 -0.0859375 110.113281 2.828125 98.0625 2.828125 Z M 88.171875 -24.015625 C 95.140625 -24.015625 101.257812 -25.707031 106.53125 -29.09375 C 111.8125 -32.488281 115.910156 -37.53125 118.828125 -44.21875 C 121.742188 -50.914062 123.203125 -59.253906 123.203125 -69.234375 C 123.203125 -84.304688 120 -95.5625 113.59375 -103 C 107.195312 -110.445312 98.722656 -114.171875 88.171875 -114.171875 C 81.203125 -114.171875 75.078125 -112.519531 69.796875 -109.21875 C 64.523438 -105.925781 60.425781 -100.9375 57.5 -94.25 C 54.582031 -87.5625 53.125 -79.222656 53.125 -69.234375 C 53.125 -54.347656 56.328125 -43.085938 62.734375 -35.453125 C 69.140625 -27.828125 77.617188 -24.015625 88.171875 -24.015625 Z M 88.171875 -24.015625 "/></g></g></g><g fill="#ffffff" fill-opacity="1"><g transform="translate(518.428546, 221.088486)"><g><path d="M 35.890625 1.984375 C 30.234375 1.984375 25.898438 0.289062 22.890625 -3.09375 C 19.878906 -6.488281 18.375 -11.203125 18.375 -17.234375 L 18.375 -120.953125 C 18.375 -127.171875 19.878906 -131.925781 22.890625 -135.21875 C 25.898438 -138.519531 30.234375 -140.171875 35.890625 -140.171875 C 41.546875 -140.171875 45.925781 -138.519531 49.03125 -135.21875 C 52.132812 -131.925781 53.6875 -127.171875 53.6875 -120.953125 L 53.6875 -17.234375 C 53.6875 -11.203125 52.179688 -6.488281 49.171875 -3.09375 C 46.160156 0.289062 41.734375 1.984375 35.890625 1.984375 Z M 35.890625 -166.453125 C 29.296875 -166.453125 24.160156 -168.097656 20.484375 -171.390625 C 16.816406 -174.691406 14.984375 -179.257812 14.984375 -185.09375 C 14.984375 -191.125 16.816406 -195.738281 20.484375 -198.9375 C 24.160156 -202.144531 29.296875 -203.75 35.890625 -203.75 C 42.671875 -203.75 47.847656 -202.144531 51.421875 -198.9375 C 55.003906 -195.738281 56.796875 -191.125 56.796875 -185.09375 C 56.796875 -179.257812 55.003906 -174.691406 51.421875 -171.390625 C 47.847656 -168.097656 42.671875 -166.453125 35.890625 -166.453125 Z M 35.890625 -166.453125 "/></g></g></g><g fill="#ffffff" fill-opacity="1"><g transform="translate(590.491439, 221.088486)"><g><path d="M 35.890625 2.265625 C 30.234375 2.265625 25.898438 0.710938 22.890625 -2.390625 C 19.878906 -5.503906 18.375 -9.984375 18.375 -15.828125 L 18.375 -183.6875 C 18.375 -189.53125 19.878906 -193.957031 22.890625 -196.96875 C 25.898438 -199.976562 30.234375 -201.484375 35.890625 -201.484375 C 41.546875 -201.484375 45.925781 -199.976562 49.03125 -196.96875 C 52.132812 -193.957031 53.6875 -189.53125 53.6875 -183.6875 L 53.6875 -79.40625 L 54.265625 -79.40625 L 100.890625 -128.578125 C 104.648438 -132.347656 107.941406 -135.269531 110.765625 -137.34375 C 113.597656 -139.414062 117.460938 -140.453125 122.359375 -140.453125 C 127.253906 -140.453125 130.972656 -139.175781 133.515625 -136.625 C 136.066406 -134.082031 137.34375 -131.019531 137.34375 -127.4375 C 137.34375 -123.863281 135.644531 -120.289062 132.25 -116.71875 L 83.078125 -64.71875 L 83.078125 -79.40625 L 137.0625 -21.1875 C 140.445312 -17.613281 142 -13.988281 141.71875 -10.3125 C 141.4375 -6.632812 139.878906 -3.617188 137.046875 -1.265625 C 134.222656 1.085938 130.644531 2.265625 126.3125 2.265625 C 121.039062 2.265625 116.847656 1.226562 113.734375 -0.84375 C 110.628906 -2.914062 107.191406 -6.023438 103.421875 -10.171875 L 54.265625 -61.609375 L 53.6875 -61.609375 L 53.6875 -15.828125 C 53.6875 -3.765625 47.753906 2.265625 35.890625 2.265625 Z M 35.890625 2.265625 "/></g></g></g><g fill="#ffffff" fill-opacity="1"><g transform="translate(741.96487, 221.088486)"><g><path d="M 23.734375 2.265625 C 19.210938 2.265625 15.585938 1.226562 12.859375 -0.84375 C 10.128906 -2.914062 8.476562 -5.691406 7.90625 -9.171875 C 7.34375 -12.660156 8.003906 -16.570312 9.890625 -20.90625 L 84.5 -186.234375 C 86.945312 -191.691406 89.910156 -195.597656 93.390625 -197.953125 C 96.878906 -200.304688 100.882812 -201.484375 105.40625 -201.484375 C 109.738281 -201.484375 113.644531 -200.304688 117.125 -197.953125 C 120.613281 -195.597656 123.582031 -191.691406 126.03125 -186.234375 L 200.921875 -20.90625 C 202.992188 -16.570312 203.75 -12.613281 203.1875 -9.03125 C 202.625 -5.457031 201.019531 -2.679688 198.375 -0.703125 C 195.738281 1.273438 192.253906 2.265625 187.921875 2.265625 C 182.648438 2.265625 178.550781 0.992188 175.625 -1.546875 C 172.707031 -4.097656 170.117188 -8.007812 167.859375 -13.28125 L 149.484375 -55.953125 L 164.75 -46.0625 L 45.5 -46.0625 L 60.75 -55.953125 L 42.671875 -13.28125 C 40.222656 -7.820312 37.675781 -3.863281 35.03125 -1.40625 C 32.394531 1.039062 28.628906 2.265625 23.734375 2.265625 Z M 104.84375 -159.953125 L 65.28125 -65.84375 L 57.9375 -74.890625 L 152.3125 -74.890625 L 145.25 -65.84375 L 105.40625 -159.953125 Z M 104.84375 -159.953125 "/></g></g></g><g fill="#ffffff" fill-opacity="1"><g transform="translate(952.219022, 221.088486)"><g><path d="M 36.453125 2.265625 C 30.609375 2.265625 26.132812 0.710938 23.03125 -2.390625 C 19.925781 -5.503906 18.375 -9.984375 18.375 -15.828125 L 18.375 -122.640625 C 18.375 -128.484375 19.878906 -132.910156 22.890625 -135.921875 C 25.898438 -138.941406 30.140625 -140.453125 35.609375 -140.453125 C 41.066406 -140.453125 45.300781 -138.941406 48.3125 -135.921875 C 51.332031 -132.910156 52.84375 -128.484375 52.84375 -122.640625 L 52.84375 -104.84375 L 50.015625 -104.84375 C 52.648438 -116.144531 57.828125 -124.710938 65.546875 -130.546875 C 73.273438 -136.390625 83.546875 -139.878906 96.359375 -141.015625 C 100.316406 -141.390625 103.472656 -140.398438 105.828125 -138.046875 C 108.179688 -135.691406 109.546875 -132.066406 109.921875 -127.171875 C 110.304688 -122.460938 109.222656 -118.644531 106.671875 -115.71875 C 104.128906 -112.800781 100.316406 -111.0625 95.234375 -110.5 L 89.015625 -109.921875 C 77.523438 -108.796875 68.859375 -105.265625 63.015625 -99.328125 C 57.179688 -93.398438 54.265625 -85.066406 54.265625 -74.328125 L 54.265625 -15.828125 C 54.265625 -9.984375 52.753906 -5.503906 49.734375 -2.390625 C 46.722656 0.710938 42.296875 2.265625 36.453125 2.265625 Z M 36.453125 2.265625 "/></g></g></g><g fill="#ffffff" fill-opacity="1"><g transform="translate(1070.910871, 221.088486)"><g><path d="M 81.671875 2.828125 C 69.421875 2.828125 59.195312 0.753906 51 -3.390625 C 42.8125 -7.535156 36.738281 -13.609375 32.78125 -21.609375 C 28.820312 -29.617188 26.84375 -39.5625 26.84375 -51.4375 L 26.84375 -111.625 L 12.15625 -111.625 C 7.632812 -111.625 4.144531 -112.800781 1.6875 -115.15625 C -0.757812 -117.507812 -1.984375 -120.757812 -1.984375 -124.90625 C -1.984375 -129.238281 -0.757812 -132.535156 1.6875 -134.796875 C 4.144531 -137.054688 7.632812 -138.1875 12.15625 -138.1875 L 26.84375 -138.1875 L 26.84375 -163.90625 C 26.84375 -169.75 28.394531 -174.175781 31.5 -177.1875 C 34.613281 -180.195312 39 -181.703125 44.65625 -181.703125 C 50.300781 -181.703125 54.628906 -180.195312 57.640625 -177.1875 C 60.660156 -174.175781 62.171875 -169.75 62.171875 -163.90625 L 62.171875 -138.1875 L 92.125 -138.1875 C 96.644531 -138.1875 100.128906 -137.054688 102.578125 -134.796875 C 105.023438 -132.535156 106.25 -129.238281 106.25 -124.90625 C 106.25 -120.757812 105.023438 -117.507812 102.578125 -115.15625 C 100.128906 -112.800781 96.644531 -111.625 92.125 -111.625 L 62.171875 -111.625 L 62.171875 -53.40625 C 62.171875 -44.363281 64.148438 -37.582031 68.109375 -33.0625 C 72.066406 -28.539062 78.472656 -26.28125 87.328125 -26.28125 C 90.523438 -26.28125 93.347656 -26.5625 95.796875 -27.125 C 98.242188 -27.695312 100.410156 -28.078125 102.296875 -28.265625 C 104.554688 -28.453125 106.441406 -27.742188 107.953125 -26.140625 C 109.460938 -24.535156 110.21875 -21.285156 110.21875 -16.390625 C 110.21875 -12.617188 109.601562 -9.273438 108.375 -6.359375 C 107.144531 -3.441406 104.929688 -1.414062 101.734375 -0.28125 C 99.285156 0.46875 96.082031 1.171875 92.125 1.828125 C 88.164062 2.492188 84.679688 2.828125 81.671875 2.828125 Z M 81.671875 2.828125 "/></g></g></g></g></g></g></svg>